<svg width="50" height="57" viewBox="0 0 50 57" fill="none" xmlns="http://www.w3.org/2000/svg">
<path fill-rule="evenodd" clip-rule="evenodd" d="M12.0509 11.0493C13.2672 10.2371 14.5335 9.56065 15.8328 9.00977C15.3106 9.30048 14.7963 9.61155 14.29 9.94977C4.14803 16.7153 1.44358 30.3743 8.24852 40.4599C15.0535 50.5432 28.7919 53.232 38.9339 46.4664C41.1195 45.0095 42.9559 43.2313 44.4316 41.2393C42.75 44.117 40.3982 46.6734 37.4287 48.6541C26.984 55.6222 12.836 52.8531 5.82737 42.4666C-1.18123 32.0846 1.604 18.0173 12.0509 11.0493Z" fill="#141F39"/>
<path fill-rule="evenodd" clip-rule="evenodd" d="M46.2577 19.0693C53.3062 30.3856 50.1352 45.307 38.9283 52.7829C27.4631 60.4297 11.9327 57.3891 4.24139 45.9902C-0.286891 39.2801 -1.08787 31.1707 1.3549 24.0748C-0.225452 30.4094 0.787155 37.3559 4.73177 43.2007C12.1443 54.1867 27.1149 57.1176 38.1648 49.7457C48.3762 42.9338 51.6678 29.7092 46.2577 19.0693Z" fill="url(#paint0_linear_1_6274)"/>
<path fill-rule="evenodd" clip-rule="evenodd" d="M20.9685 46.9866C23.8016 40.9937 17.3983 36.9961 14.8167 34.2032C12.6174 31.8198 11.2123 28.8301 13.9065 23.7715C14.0942 28.0157 16.2628 30.2305 18.6202 32.0517C26.646 38.2585 25.1145 44.3238 20.9685 46.9866Z" fill="url(#paint1_linear_1_6274)"/>
<path fill-rule="evenodd" clip-rule="evenodd" d="M25.9985 0C25.0292 5.40024 29.1695 10.227 33.2449 14.5967C38.7267 20.4698 42.9079 25.3983 40.5801 34.0394C39.6403 37.5302 37.6151 40.5312 34.9026 42.6578C37.7687 37.8944 37.2624 31.6379 33.419 27.3881C31.4723 24.9357 28.7781 22.9414 26.63 20.2198C21.6386 13.9044 19.4792 6.29161 25.9985 0Z" fill="url(#paint2_linear_1_6274)"/>
<path fill-rule="evenodd" clip-rule="evenodd" d="M22.798 47.5296C26.6221 45.6892 27.9589 42.2312 27.4367 38.8738C26.6846 34.02 21.8799 30.4839 19.0173 26.7589C15.7496 22.5125 13.878 17.386 19.0469 9.48926C18.734 16.4867 21.9743 20.4594 25.5787 23.8088C30.4586 28.346 36.6127 32.6196 34.1085 40.3941C32.5384 45.2639 27.7735 48.2705 22.798 47.5296Z" fill="#141F39"/>
<defs>
<linearGradient id="paint0_linear_1_6274" x1="24.9996" y1="19.0694" x2="24.9996" y2="57.0002" gradientUnits="userSpaceOnUse">
<stop stop-color="#3921F5"/>
<stop offset="1" stop-color="#38DA71"/>
</linearGradient>
<linearGradient id="paint1_linear_1_6274" x1="18.3966" y1="23.7715" x2="18.3966" y2="46.9866" gradientUnits="userSpaceOnUse">
<stop stop-color="#3921F5"/>
<stop offset="1" stop-color="#38DA71"/>
</linearGradient>
<linearGradient id="paint2_linear_1_6274" x1="31.5868" y1="0" x2="31.5868" y2="42.6575" gradientUnits="userSpaceOnUse">
<stop stop-color="#3921F5"/>
<stop offset="1" stop-color="#38DA71"/>
</linearGradient>
</defs>
</svg>
