<svg width="25" height="25" viewBox="0 0 25 25" fill="none" xmlns="http://www.w3.org/2000/svg">
<g clip-path="url(#clip0_1_2511)">
<path d="M19.7917 1.04163H5.20833C3.82751 1.04328 2.50371 1.59254 1.52731 2.56894C0.550919 3.54533 0.00165402 4.86913 0 6.24996L0 18.75C0.00165402 20.1308 0.550919 21.4546 1.52731 22.431C2.50371 23.4074 3.82751 23.9566 5.20833 23.9583H19.7917C21.1725 23.9566 22.4963 23.4074 23.4727 22.431C24.4491 21.4546 24.9983 20.1308 25 18.75V6.24996C24.9983 4.86913 24.4491 3.54533 23.4727 2.56894C22.4963 1.59254 21.1725 1.04328 19.7917 1.04163ZM5.20833 3.12496H19.7917C20.6205 3.12496 21.4153 3.4542 22.0014 4.04025C22.5874 4.6263 22.9167 5.42116 22.9167 6.24996V7.29163H2.08333V6.24996C2.08333 5.42116 2.41257 4.6263 2.99862 4.04025C3.58468 3.4542 4.37953 3.12496 5.20833 3.12496ZM19.7917 21.875H5.20833C4.37953 21.875 3.58468 21.5457 2.99862 20.9597C2.41257 20.3736 2.08333 19.5788 2.08333 18.75V9.37496H22.9167V18.75C22.9167 19.5788 22.5874 20.3736 22.0014 20.9597C21.4153 21.5457 20.6205 21.875 19.7917 21.875ZM19.7917 13.5416C19.7917 13.8179 19.6819 14.0828 19.4866 14.2782C19.2912 14.4735 19.0263 14.5833 18.75 14.5833H6.25C5.97373 14.5833 5.70878 14.4735 5.51343 14.2782C5.31808 14.0828 5.20833 13.8179 5.20833 13.5416C5.20833 13.2654 5.31808 13.0004 5.51343 12.8051C5.70878 12.6097 5.97373 12.5 6.25 12.5H18.75C19.0263 12.5 19.2912 12.6097 19.4866 12.8051C19.6819 13.0004 19.7917 13.2654 19.7917 13.5416ZM15.625 17.7083C15.625 17.9846 15.5153 18.2495 15.3199 18.4449C15.1246 18.6402 14.8596 18.75 14.5833 18.75H6.25C5.97373 18.75 5.70878 18.6402 5.51343 18.4449C5.31808 18.2495 5.20833 17.9846 5.20833 17.7083C5.20833 17.432 5.31808 17.1671 5.51343 16.9717C5.70878 16.7764 5.97373 16.6666 6.25 16.6666H14.5833C14.8596 16.6666 15.1246 16.7764 15.3199 16.9717C15.5153 17.1671 15.625 17.432 15.625 17.7083ZM3.125 5.20829C3.125 5.00227 3.18609 4.80088 3.30055 4.62957C3.41501 4.45827 3.5777 4.32476 3.76804 4.24592C3.95838 4.16708 4.16782 4.14645 4.36989 4.18664C4.57195 4.22683 4.75756 4.32604 4.90324 4.47172C5.04892 4.6174 5.14813 4.80301 5.18832 5.00507C5.22851 5.20714 5.20788 5.41658 5.12904 5.60692C5.0502 5.79726 4.91669 5.95995 4.74539 6.07441C4.57408 6.18887 4.37269 6.24996 4.16667 6.24996C3.8904 6.24996 3.62545 6.14021 3.4301 5.94486C3.23475 5.74951 3.125 5.48456 3.125 5.20829ZM6.25 5.20829C6.25 5.00227 6.31109 4.80088 6.42555 4.62957C6.54001 4.45827 6.7027 4.32476 6.89304 4.24592C7.08338 4.16708 7.29282 4.14645 7.49489 4.18664C7.69695 4.22683 7.88256 4.32604 8.02824 4.47172C8.17392 4.6174 8.27312 4.80301 8.31332 5.00507C8.35351 5.20714 8.33288 5.41658 8.25404 5.60692C8.1752 5.79726 8.04169 5.95995 7.87039 6.07441C7.69908 6.18887 7.49769 6.24996 7.29167 6.24996C7.0154 6.24996 6.75045 6.14021 6.5551 5.94486C6.35975 5.74951 6.25 5.48456 6.25 5.20829ZM9.375 5.20829C9.375 5.00227 9.43609 4.80088 9.55055 4.62957C9.66501 4.45827 9.8277 4.32476 10.018 4.24592C10.2084 4.16708 10.4178 4.14645 10.6199 4.18664C10.8219 4.22683 11.0076 4.32604 11.1532 4.47172C11.2989 4.6174 11.3981 4.80301 11.4383 5.00507C11.4785 5.20714 11.4579 5.41658 11.379 5.60692C11.3002 5.79726 11.1667 5.95995 10.9954 6.07441C10.8241 6.18887 10.6227 6.24996 10.4167 6.24996C10.1404 6.24996 9.87545 6.14021 9.6801 5.94486C9.48475 5.74951 9.375 5.48456 9.375 5.20829Z" fill="#141F39"/>
</g>
<defs>
<clipPath id="clip0_1_2511">
<rect width="25" height="25" fill="white"/>
</clipPath>
</defs>
</svg>
